<svg viewBox="0 0 26 26">
    <g fill-rule="evenodd" transform="translate(0 -1026.362)" fill="#595bd4" class="color000000 svgShape">
        <circle cx="13" cy="1039.362" r="13" fill="#53d86a" class="color50b748 svgShape"></circle>
        <path fill="#fe9526"
            d="M16.906 25.396a13 13 0 0 0 1.157-.421 13 13 0 0 0 1.17-.567 13 13 0 0 0 1.107-.68 13 13 0 0 0 1.035-.785 13 13 0 0 0 .951-.886 13 13 0 0 0 .858-.977 13 13 0 0 0 .755-1.057 13 13 0 0 0 .647-1.127 13 13 0 0 0 .531-1.185 13 13 0 0 0 .27-.815l-8.143-8.14A5.98 5.98 0 0 0 13 7a5.994 5.994 0 0 0-6.002 6c0 .622.095 1.221.27 1.785v.002c.116.375.269.735.453 1.074v.002c.276.51.626.975 1.033 1.381l8.152 8.152z"
            color="#000" font-family="sans-serif" font-weight="400" transform="translate(0 1026.362)"
            style="line-height:normal;text-indent:0;text-align:start;text-decoration-line:none;text-decoration-style:solid;text-decoration-color:#000;text-transform:none;block-progression:tb;isolation:auto;mix-blend-mode:normal"
            class="color10a711 svgShape"></path>
        <path fill="#167ffc"
            d="M8 2c3.32 0 6 2.68 6 6s-2.68 6-6 6a5.994 5.994 0 0 1-6.002-6C1.998 4.68 4.68 2 8 2Zm-.014 2.004a.5.5 0 0 0-.492.508L7.5 7.504l-2.996.006c-.668.001-.666 1.003.002 1.002L7.5 8.506l.006 2.994c-.01.676 1.01.676 1 0l-.004-2.996 2.992-.006c.676.008.674-1.01-.002-1L8.5 7.504l-.004-2.992a.5.5 0 0 0-.51-.506Z"
            color="#000" font-family="sans-serif" font-weight="400" overflow="visible"
            transform="translate(5.001 1031.362)"
            style="line-height:normal;text-indent:0;text-align:start;text-decoration-line:none;text-decoration-style:solid;text-decoration-color:#000;text-transform:none;block-progression:tb;isolation:auto;mix-blend-mode:normal"
            class="colorffffff svgShape"></path>
    </g>
</svg>