<svg xmlns="http://www.w3.org/2000/svg" viewBox="0 0 100 100"><path d="M82.3 39.7h-4.9V35c0-.7-.6-1.2-1.2-1.2h-5.3V30c0-.7-.6-1.2-1.2-1.2h-6.9c-.7 0-1.2.6-1.2 1.2v3.8h-4.1c-.7-10.8-9.6-19.4-20.6-19.4-11.3 0-20.5 9.2-20.5 20.5 0 8.1 4.7 15.1 11.5 18.4v20.8c0 3 2.5 5.5 5.5 5.5h.6v.5c0 3 2.5 5.5 5.5 5.5h35.2c4.8 0 8.7-3.9 8.7-8.7V41c.1-.7-.4-1.3-1.1-1.3zM64 31.2h4.4v2.5H64v-2.5zM22.6 43.4c-.3.4-.5.9-.6 1.3-1.9-2.8-3-6.2-3-9.9 0-9.9 8.1-18 18-18 9.5 0 17.3 7.5 17.9 16.9 0 .4.1.8.1 1.1v.1c0 .4 0 .8-.1 1.2-.1 1.2-.3 2.4-.6 3.5-.1.4-.3.8-.4 1.2-.2.4-.3.8-.5 1.2-.4.9-.9 1.8-1.5 2.7-.1-.5-.4-1-.7-1.5-.3-.4-.6-.8-1-1.2-.5-.5-1-.9-1.6-1.2-.8-.5-1.6-.9-2.3-1.2-.2-.1-.3-.2-.5-.2-.5-.3-1.1-.5-1.5-.8-.6-.3-1-.7-.4-2.4 0-.1 0-.1.1-.2.1-.4.3-.8.4-1.2l.3-1.2c.2-1 .3-2 .1-3.2-.4-3.8-3.9-6.8-7.8-6.8h-.1c-3.9 0-7.4 3.1-7.8 6.8-.1 1.2 0 2.2.1 3.2l.3 1.2c.1.5.3.9.5 1.4.6 1.7.2 2.1-.4 2.4-.1.1-.2.1-.3.2l-1.2.6c-2.1 1-4.3 2.1-5.5 4zm18.5-5.1c-.8.7-1.5 1.2-2.3 1.5-.6.2-1.3.4-1.9.3-.6 0-1.1-.1-1.6-.3-1.1-.4-2.1-1.1-2.6-1.5.1-.6 0-1.2-.2-2-.1-.2-.1-.4-.2-.7-.1-.2-.1-.4-.2-.6-.1-.4-.3-.9-.4-1.2-.2-1-.3-1.9-.2-2.9.2-2.5 2.7-4.6 5.3-4.6h.1c2.6 0 5 2.1 5.3 4.6.1 1 0 2-.2 2.9-.1.4-.2.8-.4 1.2-.1.2-.1.4-.2.6-.1.2-.1.5-.2.7-.2.7-.2 1.4-.1 2zM29.2 51.1c-.4-.2-.8-.4-1.2-.7-1.4-.8-2.8-1.9-3.9-3 0-1.1.1-1.9.6-2.6.7-1.1 2-1.8 3.3-2.5.4-.2.7-.3 1.1-.5.1 0 .1-.1.2-.1.4-.2.9-.4 1.2-.6.1 0 .2-.1.2-.1.2-.1.5-.3.7-.5.6.5 1.5 1.1 2.6 1.5.4.2.8.3 1.2.4.4.1.8.1 1.2.2h.4c.7 0 1.4-.1 2.1-.3.9-.3 1.7-.7 2.5-1.2.2-.2.4-.3.7-.5.2.2.5.4.7.5h.1c.5.3 1 .5 1.6.8.3.2.6.3 1 .5 1.4.7 2.7 1.4 3.4 2.5.5.7.6 1.6.6 2.8-2.8 2.8-6.5 4.7-10.6 5.2-.5.1-.9.1-1.4.1h-1.1c-.4 0-.8 0-1.2-.1-.4 0-.8-.1-1.2-.2-1.2-.2-2.5-.5-3.6-1-.3-.2-.8-.4-1.2-.6zm6.1 26H33.5c-1.7 0-3-1.4-3-3V54.3c1.2.4 2.4.7 3.6.8.4.1.8.1 1.2.1.4 0 .8.1 1.2.1h.4c8.7 0 16.1-5.5 19.1-13.1.2-.4.3-.8.5-1.2l.3-1.2c.3-1.1.5-2.3.5-3.5h17.6V74c0 1.7-1.4 3-3 3H35.3zm45.7-.2c0 3.4-2.8 6.2-6.2 6.2H39.6c-1.7 0-3-1.4-3-3v-.5h35.3c3 0 5.5-2.5 5.5-5.5V42.2H81v34.7z"/><circle cx="57.5" cy="50.6" r="2"/><circle cx="67.2" cy="50.6" r="2"/><path d="M38.2 61.9c1.1 0 2-.9 2-2s-.9-2-2-2c-.7 0-1.3.3-1.6.9-.2.3-.4.7-.4 1.1 0 .4.1.8.4 1.1.3.6.9.9 1.6.9z"/><circle cx="47.9" cy="59.9" r="2"/><circle cx="57.5" cy="59.9" r="2"/><circle cx="67.2" cy="59.9" r="2"/><path d="M38.2 70.6c1.1 0 2-.9 2-2s-.9-2-2-2c-.7 0-1.3.3-1.6.9-.2.3-.4.7-.4 1.1 0 .4.1.8.4 1.1.3.6.9.9 1.6.9z"/><circle cx="47.9" cy="68.6" r="2"/><circle cx="57.5" cy="68.6" r="2"/><circle cx="67.2" cy="68.6" r="2"/><path d="M38.4 33c-.1 0-.2-.1-.4-.1h-.7v-2.2c0-.3-.1-.5-.2-.7-.2-.3-.6-.5-1-.5-.7 0-1.2.6-1.2 1.2v3.4c0 .3.1.6.3.9.2.2.4.3.7.4H38c.1 0 .2 0 .4-.1s.4-.2.5-.3c.2-.2.3-.5.3-.9 0-.1 0-.3-.1-.4 0-.3-.3-.6-.7-.7z"/></svg>