<svg xmlns="http://www.w3.org/2000/svg" width="48" height="48"><g transform="translate(0 -1004.362)"><circle cx="24" cy="1028.362" r="24" fill="#ffa40b" fill-rule="evenodd"/><g transform="translate(103.04 -207)"><rect width="15" height="18" x="-79.039" y="1226.362" fill="#576d7e" fill-rule="evenodd" rx=".882" ry="1"/><rect width="17.039" height="18" x="-94.039" y="1226.362" fill="#576d7e" fill-rule="evenodd" rx=".882" ry="1"/><rect width="14" height="3" x="-93" y="1240.362" fill="#e9eded" rx="0" ry="0"/><path fill="#f9f9f9" fill-rule="evenodd" d="M-93 1224.362v17h12.006a2 2 0 0 1 2.002 2l-.008-17c0-1.108-.89-2-1.995-2h-10.011z"/><path fill="#f05542" fill-rule="evenodd" d="M-91 1243.262v3.761c0 .247.26.408.481.297l1.159-.579a.805.805 0 0 1 .72 0l1.155.578a.335.335 0 0 0 .485-.3v-3.937a.72.72 0 0 0-.72-.72h-2.38a.9.9 0 0 0-.9.9z"/><rect width="14" height="3" x="65" y="1240.362" fill="#c4cece" rx="0" ry="0" transform="scale(-1 1)"/><path fill="#e9eded" fill-rule="evenodd" d="M-77.006 1224.362a1.989 1.989 0 0 0-1.99 2l.015 17c0-1 .903-2 2.014-2H-65.039v-17H-77.006z"/><path fill="#cad1d8" fill-rule="evenodd" d="m-92.24 1227.562 3.2-3.2v3a1 1 0 0 1-1 1h-3"/><path fill="#f05542" d="M-91 1242.362h4v2h-4z"/></g></g></svg>